# Blender 3.4.1
# www.blender.org
mtllib plane.mtl
o Plane.002
v 1.271827 0.342762 -0.019953
v -0.252730 0.065583 -0.000000
v 1.270841 0.000000 -0.000000
v -0.252730 0.063814 -0.017962
v 1.174357 0.342762 -0.019953
v 1.421703 -0.000000 -0.694125
v -1.000000 -0.000000 0.000000
v 1.271827 -0.046264 -0.000000
v -0.252730 0.058575 -0.035234
v -1.000000 -0.000000 -0.027406
v -0.252730 0.050066 -0.051152
v 1.271827 0.342762 0.019953
v -0.252730 0.038616 -0.065104
v -0.531969 -0.000000 -0.104396
v 1.174357 0.342762 0.019953
v -0.252730 0.024664 -0.076554
v 0.115405 0.000000 -0.000000
v -0.252730 0.008746 -0.085063
v 0.115405 -0.000000 -0.243584
v 0.630263 0.000000 -0.000000
v 0.630263 -0.000000 -0.233144
v 0.545269 -0.000000 -0.970858
v 0.826824 -0.000000 -0.971461
v -0.252730 0.008746 0.085063
v 1.008856 0.000000 -0.235321
v -0.252730 0.024664 0.076554
v 1.008856 0.000000 -0.000000
v -0.252730 0.038616 0.065104
v -0.252730 0.050066 0.051152
v 1.139848 0.000000 -0.000000
v 1.349977 -0.000000 -0.667839
v -0.252730 0.058575 0.035234
v 1.421703 0.000000 0.694125
v -0.252730 0.063814 0.017962
v -1.000000 -0.000000 0.027406
v 0.067855 0.026740 0.010588
v -0.531969 -0.000000 0.104396
v 0.067855 0.023652 0.020769
v 0.067855 0.018637 0.030151
v 0.115405 0.000000 0.243584
v 0.630263 0.000000 0.233143
v 0.067855 0.011887 0.038375
v 0.545269 0.000000 0.970858
v 0.067855 0.003663 0.045125
v 0.826824 0.000000 0.971461
v 1.008856 0.000000 0.235321
v 1.349977 0.000000 0.667839
v 1.270841 -0.050000 -0.000000
v 1.421703 -0.050000 -0.694125
v -1.000000 -0.050000 0.000000
v 0.067855 0.003663 -0.045125
v -1.000000 -0.050000 -0.027406
v 0.067855 0.011887 -0.038375
v -0.531969 -0.050000 0.000000
v 0.067855 0.018637 -0.030151
v -0.531969 -0.050000 -0.104396
v 0.067855 0.023652 -0.020769
v 0.115405 -0.050000 0.000000
v 0.067855 0.026740 -0.010588
v 0.115405 -0.050000 -0.243584
v 0.630263 -0.050000 -0.000000
v 0.067855 0.027783 -0.000000
v -0.573314 0.026740 0.010588
v 0.630263 -0.050000 -0.233143
v 0.545269 -0.050000 -0.970858
v -0.573314 0.023652 0.020769
v 0.826824 -0.050000 -0.971461
v -0.573314 0.018637 0.030151
v -0.573314 0.011887 0.038375
v 1.008856 -0.050000 -0.235321
v 1.008856 -0.050000 -0.000000
v -0.573314 0.003663 0.045125
v 1.139848 -0.050000 -0.000000
v 1.349977 -0.050000 -0.667839
v 1.421703 -0.050000 0.694125
v -1.000000 -0.050000 0.027406
v -0.531969 -0.050000 0.104396
v 0.115405 -0.050000 0.243584
v 0.630263 -0.050000 0.233143
v -0.573314 0.003663 -0.045125
v 0.545269 -0.050000 0.970858
v -0.573314 0.011887 -0.038375
v 0.826824 -0.050000 0.971461
v -0.573314 0.018637 -0.030151
v 1.008856 -0.050000 0.235321
v -0.573314 0.023652 -0.020769
v 1.349977 -0.050000 0.667839
v -0.573314 0.026740 -0.010588
v -0.573314 0.027783 -0.000000
v -0.573314 -0.000000 -0.047083
v -0.531969 -0.000000 -0.052584
v -0.573314 -0.000000 0.000000
v 0.067855 -0.000000 -0.047083
v -0.252730 -0.000000 -0.087716
v -0.058897 -0.000000 -0.063948
v 0.067855 0.000000 -0.000000
v -0.446562 -0.000000 -0.063948
v -0.573314 -0.000000 0.047083
v -0.531969 -0.000000 0.052584
v -0.446562 -0.000000 0.063948
v -0.058897 0.000000 0.063948
v -0.252730 0.000000 0.087716
v 0.067855 0.000000 0.047083
v 1.008856 0.000000 -0.019953
v 0.934889 0.000000 -0.019953
v 0.934889 0.000000 -0.000000
v 1.146127 0.000000 -0.019953
v 1.271827 0.000000 -0.004533
v 1.271827 0.000000 -0.019953
v 0.934889 0.000000 0.019953
v 1.008856 0.000000 0.019953
v 1.146127 0.000000 0.019953
v 1.271827 0.000000 0.019953
v 1.271827 0.000000 0.004533
v 1.271827 -0.046264 -0.004533
v 1.270841 -0.046264 -0.000000
v 1.271827 -0.046264 0.004533
vn -0.0000 1.0000 -0.0000
vn 1.0000 -0.0000 -0.0000
vn -0.8198 0.5727 -0.0000
vn -0.0000 -1.0000 -0.0000
vn 0.9772 -0.0000 0.2124
vn -0.1623 -0.0000 -0.9867
vn -1.0000 -0.0000 -0.0000
vn -0.2102 -0.0000 -0.9777
vn -0.0058 -0.0000 -1.0000
vn -0.0021 -0.0000 -1.0000
vn -0.7852 -0.0000 -0.6193
vn 0.9663 -0.0000 0.2573
vn -0.8609 -0.0000 -0.5088
vn -0.3441 -0.0000 -0.9389
vn 0.9772 -0.0000 -0.2124
vn -0.1623 -0.0000 0.9867
vn -0.2102 -0.0000 0.9777
vn -0.0058 -0.0000 1.0000
vn -0.0021 -0.0000 1.0000
vn -0.7852 -0.0000 0.6193
vn 0.9663 -0.0000 -0.2573
vn -0.8609 -0.0000 0.5088
vn -0.3441 -0.0000 0.9389
vn 0.1165 0.9504 -0.2883
vn 0.1165 0.8759 -0.4682
vn 0.1165 0.7677 -0.6301
vn 0.1165 0.6301 -0.7677
vn 0.1165 0.4682 -0.8759
vn 0.1165 0.2883 -0.9504
vn 0.1165 0.2883 0.9504
vn 0.1165 0.4682 0.8759
vn 0.1165 0.6301 0.7677
vn 0.1165 0.7677 0.6301
vn 0.1165 0.8759 0.4682
vn 0.1165 0.9504 0.2883
vn 0.1165 0.9884 -0.0973
vn 0.1165 0.9884 0.0973
vn -0.1165 0.9504 -0.2883
vn -0.1165 0.8759 -0.4682
vn -0.1165 0.7677 -0.6301
vn -0.1165 0.6301 -0.7677
vn -0.1165 0.4682 -0.8759
vn -0.1165 0.2883 -0.9504
vn -0.1165 0.2883 0.9504
vn -0.1165 0.4682 0.8759
vn -0.1165 0.6301 0.7677
vn -0.1165 0.7677 0.6301
vn -0.1165 0.8759 0.4682
vn -0.1165 0.9504 0.2883
vn -0.1165 0.9884 -0.0973
vn -0.1165 0.9884 0.0973
vn -0.0000 -0.0000 -1.0000
vn -0.0000 -0.0000 1.0000
vt 0.000000 0.000000
vt 0.250000 0.490000
vt 0.000000 0.000000
vt 0.296822 0.485388
vt 0.000000 1.000000
vt 1.000000 0.000000
vt 0.000000 1.000000
vt 1.000000 0.000000
vt 0.341844 0.471731
vt 1.000000 1.000000
vt 0.383337 0.449553
vt 0.000000 0.000000
vt 0.419706 0.419706
vt 1.000000 0.765985
vt 0.000000 1.000000
vt 0.449553 0.383337
vt 0.000000 0.608540
vt 0.471731 0.341844
vt 1.000000 0.608540
vt 0.000000 0.361314
vt 1.000000 0.361314
vt 1.000000 0.608540
vt 1.000000 0.361314
vt 0.028269 0.341844
vt 1.000000 0.149933
vt 0.050447 0.383337
vt 0.080294 0.419706
vt 0.116663 0.449553
vt 1.000000 0.074966
vt 0.158156 0.471731
vt 1.000000 0.000000
vt 0.203178 0.485388
vt 1.000000 1.000000
vt 0.235632 0.322231
vt 1.000000 0.765985
vt 0.221817 0.318040
vt 0.209084 0.311235
vt 1.000000 0.608540
vt 1.000000 0.361314
vt 0.197924 0.302076
vt 1.000000 0.608540
vt 0.188765 0.290916
vt 1.000000 0.361314
vt 1.000000 0.149933
vt 1.000000 0.074966
vt 0.000000 0.000000
vt 1.000000 0.000000
vt 0.000000 1.000000
vt 0.311235 0.290916
vt 1.000000 1.000000
vt 0.302076 0.302076
vt 0.000000 0.765985
vt 0.290916 0.311235
vt 1.000000 0.765985
vt 0.278183 0.318040
vt 0.000000 0.608540
vt 0.264368 0.322231
vt 1.000000 0.608540
vt 0.000000 0.361314
vt 0.250000 0.323646
vt 0.235632 0.322231
vt 1.000000 0.361314
vt 1.000000 0.608540
vt 0.221817 0.318040
vt 1.000000 0.361314
vt 0.209084 0.311235
vt 0.197924 0.302076
vt 1.000000 0.149933
vt 0.000000 0.149933
vt 0.188765 0.290916
vt 0.000000 0.074966
vt 1.000000 0.074966
vt 1.000000 0.000000
vt 1.000000 1.000000
vt 1.000000 0.765985
vt 1.000000 0.608540
vt 1.000000 0.361314
vt 0.311235 0.290916
vt 1.000000 0.608540
vt 0.302076 0.302076
vt 1.000000 0.361314
vt 0.290916 0.311235
vt 1.000000 0.149933
vt 0.278183 0.318040
vt 1.000000 0.074966
vt 0.264368 0.322231
vt 0.250000 0.323646
vt 0.484862 0.786657
vt 0.313892 0.285944
vt 0.503695 0.765985
vt 0.334548 0.292592
vt 0.000000 0.786657
vt 0.250000 0.285944
vt 0.208104 0.620105
vt 0.313892 0.285944
vt 0.538880 0.698072
vt 0.478647 0.319046
vt 0.316362 0.650931
vt 0.378806 0.303353
vt 0.000000 0.620105
vt 0.250000 0.285944
vt 0.526200 0.745213
vt 0.378806 0.303353
vt 0.484862 0.786657
vt 0.186108 0.285944
vt 0.503695 0.765985
vt 0.165452 0.292592
vt 0.526200 0.745213
vt 0.121194 0.303353
vt 0.316362 0.650931
vt 0.121194 0.303353
vt 0.538880 0.698072
vt 0.021353 0.319046
vt 0.208104 0.620105
vt 0.186108 0.285944
vt 0.084791 0.149933
vt 0.881078 0.783710
vt 0.085016 0.191231
vt 0.881078 1.000000
vt 0.000000 0.191231
vt 0.029877 0.074966
vt 0.881078 0.390756
vt 0.006531 0.000000
vt 0.028865 0.002035
vt 0.881078 0.000000
vt 0.085016 0.191231
vt 0.881078 1.000000
vt 0.084791 0.149933
vt 0.881078 0.783710
vt 0.029877 0.074966
vt 0.881078 0.390756
vt 0.028865 0.002035
vt 0.881078 0.000000
vt 0.006531 0.000000
vt 0.006531 0.000000
vt 1.000000 0.000000
vt 0.000000 0.000000
vt 1.000000 0.002668
vt 0.006531 0.000000
vt 1.000000 0.000000
s 0
f 90/88/1 91/90/1 14/14/1 10/10/1 7/7/1 92/92/1
f 93/94/1 96/100/1 17/17/1 19/19/1 14/14/1 91/90/1 97/102/1 94/96/1 95/98/1
f 20/20/1 21/21/1 19/19/1 17/17/1
f 25/25/1 21/21/1 20/20/1 106/120/1 105/118/1 104/116/1
f 31/29/1 25/25/1 104/116/1 107/121/1
f 6/6/1 31/29/1 107/121/1 109/124/1 108/123/1
f 19/19/1 21/21/1 23/23/1 22/22/1
f 98/104/1 92/92/1 7/7/1 35/33/1 37/35/1 99/106/1
f 100/108/1 99/106/1 37/35/1 40/38/1 17/17/1 96/100/1 103/114/1 101/110/1 102/112/1
f 20/20/1 17/17/1 40/38/1 41/39/1
f 106/120/1 20/20/1 41/39/1 46/44/1 111/128/1 110/126/1
f 46/44/1 47/45/1 112/130/1 111/128/1
f 47/45/1 33/31/1 114/134/1 113/132/1 112/130/1
f 40/38/1 43/41/1 45/43/1 41/39/1
f 54/52/4 50/48/4 52/50/4 56/54/4
f 58/56/4 54/52/4 56/54/4 60/58/4
f 61/59/4 58/56/4 60/58/4 64/62/4
f 71/69/4 61/59/4 64/62/4 70/68/4
f 73/71/4 71/69/4 70/68/4 74/72/4
f 48/46/4 73/71/4 74/72/4 49/47/4
f 60/58/4 65/63/4 67/65/4 64/62/4
f 54/52/4 77/75/4 76/74/4 50/48/4
f 58/56/4 78/76/4 77/75/4 54/52/4
f 61/59/4 79/77/4 78/76/4 58/56/4
f 71/69/4 85/83/4 79/77/4 61/59/4
f 73/71/4 87/85/4 85/83/4 71/69/4
f 48/46/4 75/73/4 87/85/4 73/71/4
f 78/76/4 79/77/4 83/81/4 81/79/4
f 116/137/5 48/46/5 49/47/5 6/6/5 108/123/5 115/135/5
f 115/135/5 108/123/5 3/3/5 116/137/5
f 10/10/6 14/14/6 56/54/6 52/50/6
f 7/7/7 10/10/7 52/50/7 50/48/7
f 14/14/8 19/19/8 60/58/8 56/54/8
f 21/21/9 25/25/9 70/68/9 64/62/9
f 22/22/10 23/23/10 67/65/10 65/63/10
f 25/25/11 31/29/11 74/72/11 70/68/11
f 23/23/12 21/21/12 64/62/12 67/65/12
f 19/19/13 22/22/13 65/63/13 60/58/13
f 31/29/14 6/6/14 49/47/14 74/72/14
f 114/134/15 33/31/15 75/73/15 48/46/15 116/137/15 117/139/15
f 117/139/15 116/137/15 3/3/15 114/134/15
f 37/35/16 35/33/16 76/74/16 77/75/16
f 35/33/7 7/7/7 50/48/7 76/74/7
f 40/38/17 37/35/17 77/75/17 78/76/17
f 46/44/18 41/39/18 79/77/18 85/83/18
f 45/43/19 43/41/19 81/79/19 83/81/19
f 47/45/20 46/44/20 85/83/20 87/85/20
f 41/39/21 45/43/21 83/81/21 79/77/21
f 43/41/22 40/38/22 78/76/22 81/79/22
f 33/31/23 47/45/23 87/85/23 75/73/23
f 12/12/2 113/133/2 109/125/2 1/1/2
f 5/5/1 15/15/1 12/12/1 1/1/1
f 15/15/3 5/5/3 105/119/3 110/127/3
f 4/4/24 59/57/24 57/55/24 9/9/24
f 9/9/25 57/55/25 55/53/25 11/11/25
f 11/11/26 55/53/26 53/51/26 13/13/26
f 13/13/27 53/51/27 51/49/27 16/16/27
f 93/95/28 95/99/28 18/18/28 16/16/28 51/49/28
f 94/97/29 18/18/29 95/99/29
f 102/113/30 101/111/30 24/24/30
f 103/115/31 44/42/31 26/26/31 24/24/31 101/111/31
f 26/26/32 44/42/32 42/40/32 28/27/32
f 28/27/33 42/40/33 39/37/33 29/28/33
f 29/28/34 39/37/34 38/36/34 32/30/34
f 32/30/35 38/36/35 36/34/35 34/32/35
f 2/2/36 62/60/36 59/57/36 4/4/36
f 34/32/37 36/34/37 62/60/37 2/2/37
f 59/57/2 62/60/2 36/34/2 38/36/2 39/37/2 42/40/2 44/42/2 103/115/2 96/101/2 93/95/2 51/49/2 53/51/2 55/53/2 57/55/2
f 4/4/38 9/9/38 86/84/38 88/86/38
f 9/9/39 11/11/39 84/82/39 86/84/39
f 11/11/40 13/13/40 82/80/40 84/82/40
f 13/13/41 16/16/41 80/78/41 82/80/41
f 91/91/42 90/89/42 80/78/42 16/16/42 18/18/42 97/103/42
f 18/18/43 94/97/43 97/103/43
f 24/24/44 100/109/44 102/113/44
f 100/109/45 24/24/45 26/26/45 72/70/45 98/105/45 99/107/45
f 26/26/46 28/27/46 69/67/46 72/70/46
f 28/27/47 29/28/47 68/66/47 69/67/47
f 29/28/48 32/30/48 66/64/48 68/66/48
f 32/30/49 34/32/49 63/61/49 66/64/49
f 2/2/50 4/4/50 88/86/50 89/87/50
f 34/32/51 2/2/51 89/87/51 63/61/51
f 88/86/7 86/84/7 84/82/7 82/80/7 80/78/7 90/89/7 92/93/7 98/105/7 72/70/7 69/67/7 68/66/7 66/64/7 63/61/7 89/87/7
f 107/122/52 104/117/52 105/119/52 5/5/52 1/1/52 109/125/52
f 116/138/1 8/8/1 115/136/1
f 110/127/53 111/129/53 112/131/53 113/133/53 12/12/53 15/15/53
f 8/8/1 116/138/1 117/140/1
l 3 30
l 27 111
l 27 104
l 27 106
l 30 107
l 30 112
